<?xml version="1.0" encoding="utf-8"?>
<!-- Generator: Adobe Illustrator 24.0.1, SVG Export Plug-In . SVG Version: 6.00 Build 0)  -->
<svg version="1.1" id="레이어_1" xmlns="http://www.w3.org/2000/svg" xmlns:xlink="http://www.w3.org/1999/xlink" x="0px"
	 y="0px" viewBox="0 0 46 46" style="enable-background:new 0 0 46 46;" xml:space="preserve">
<style type="text/css">
	.st0{fill:#2C4EAA;}
	.st1{fill-rule:evenodd;clip-rule:evenodd;fill:#FFFFFF;}
</style>
<g>
	<circle class="st0" cx="22.9" cy="23.1" r="23"/>
	<g>
		<path class="st1" d="M14.5,13.1h12l4.4,4.1v15.5H14.5V13.1z M28.7,17.2H16.6c-0.1,0-0.3,0.1-0.3,0.2v0.4c0,0.2,0.1,0.3,0.3,0.3
			h12.1c0.1,0,0.3-0.1,0.3-0.3v-0.4C28.9,17.3,28.8,17.2,28.7,17.2z M28.7,27.6H16.6c-0.1,0-0.3,0.1-0.3,0.2v0.5
			c0,0.1,0.1,0.2,0.3,0.2h12.1c0.1,0,0.3-0.1,0.3-0.2v-0.5C28.9,27.7,28.8,27.6,28.7,27.6z M28.7,24.1H16.6c-0.1,0-0.3,0.1-0.3,0.2
			v0.5c0,0.1,0.1,0.2,0.3,0.2h12.1c0.1,0,0.3-0.1,0.3-0.2v-0.5C28.9,24.2,28.8,24.1,28.7,24.1z M28.7,20.7H16.6
			c-0.1,0-0.3,0.1-0.3,0.2v0.5c0,0.1,0.1,0.2,0.3,0.2h12.1c0.1,0,0.3-0.1,0.3-0.2v-0.5C28.9,20.8,28.8,20.7,28.7,20.7z"/>
	</g>
</g>
</svg>
