<?xml version="1.0" encoding="utf-8"?>
<!-- Generator: Adobe Illustrator 24.0.1, SVG Export Plug-In . SVG Version: 6.00 Build 0)  -->
<svg version="1.1" id="레이어_1" xmlns="http://www.w3.org/2000/svg" xmlns:xlink="http://www.w3.org/1999/xlink" x="0px"
	 y="0px" viewBox="0 0 46 46" style="enable-background:new 0 0 46 46;" xml:space="preserve">
<style type="text/css">
	.st0{fill:#2C4EAA;}
	.st1{fill:#FFFFFF;}
</style>
<g>
	<circle class="st0" cx="23.1" cy="23.1" r="23"/>
	<g>
		<path class="st1" d="M23.3,11.6c-6,0-10.9,4.9-10.9,10.8c0,2,0.6,4,1.5,5.6l-2.3,4.9c-0.3,0.7,0.4,1.4,1,1l4.9-2.3
			c1.6,1,3.5,1.5,5.6,1.5c6,0,10.8-4.9,10.8-10.8S29.3,11.6,23.3,11.6z M23.1,29.2c-0.8,0-1.5-0.7-1.5-1.5c0-0.8,0.7-1.5,1.5-1.5
			c0.8,0,1.5,0.7,1.5,1.5S23.9,29.2,23.1,29.2z M24.9,23.2c-0.7,0.6-0.7,0.9-0.7,1v0.5c0,0.3-0.2,0.5-0.5,0.5h-1.3
			c-0.3,0-0.5-0.2-0.5-0.5v-0.5c0-1,0.5-1.9,1.5-2.8c0.7-0.6,1.5-1.3,1.5-2c0-1-0.5-1.4-1.7-1.4c-1.8,0-1.8,1.4-1.8,1.4v0.2
			c0,0.3-0.2,0.5-0.5,0.5h-1.3c-0.3,0-0.5-0.2-0.5-0.5v-0.2c0-1.5,1.1-3.7,4.1-3.7c2.9,0,4,1.9,4,3.8C27.3,21.3,25.8,22.5,24.9,23.2
			z"/>
	</g>
</g>
</svg>
