<?xml version="1.0" encoding="utf-8"?>
<!-- Generator: Adobe Illustrator 24.0.1, SVG Export Plug-In . SVG Version: 6.00 Build 0)  -->
<svg version="1.1" id="레이어_1" xmlns="http://www.w3.org/2000/svg" xmlns:xlink="http://www.w3.org/1999/xlink" x="0px"
	 y="0px" viewBox="0 0 46 46" style="enable-background:new 0 0 46 46;" xml:space="preserve">
<style type="text/css">
	.st0{fill:#2C4EAA;}
	.st1{fill:#FFFFFF;}
</style>
<g>
	<circle class="st0" cx="23" cy="23.1" r="23"/>
	<g>
		<g>
			<g>
				<path class="st1" d="M11,15.7v13.2h2c0.4-2.2,2.5-3.6,4.6-3.2c1.5,0.3,2.7,1.6,3.1,3.2h2.9V15.7H11z"/>
				<path class="st1" d="M16.9,27.2c1.3,0,2.4,1.1,2.4,2.4s-1.1,2.4-2.4,2.4s-2.4-1.1-2.4-2.4S15.6,27.2,16.9,27.2"/>
			</g>
			<polygon class="st1" points="31,15.7 24.8,15.7 24.8,20.9 35.2,20.9 			"/>
			<g>
				<path class="st1" d="M24.8,22v6.8h1.6c0.4-2.2,2.5-3.6,4.6-3.2c1.3,0.3,2.3,1.1,2.8,2.3c0.1,0.3,0.3,0.6,0.3,0.9h1.5V22H24.8z"
					/>
				<path class="st1" d="M30.2,27.2c1.3,0,2.4,1.1,2.4,2.4s-1.1,2.4-2.4,2.4c-1.3,0-2.4-1.1-2.4-2.4S28.9,27.2,30.2,27.2"/>
			</g>
		</g>
	</g>
</g>
</svg>
