<?xml version="1.0" encoding="utf-8"?>
<!-- Generator: Adobe Illustrator 24.0.1, SVG Export Plug-In . SVG Version: 6.00 Build 0)  -->
<svg version="1.1" id="레이어_1" xmlns="http://www.w3.org/2000/svg" xmlns:xlink="http://www.w3.org/1999/xlink" x="0px"
	 y="0px" viewBox="0 0 20 20" style="enable-background:new 0 0 20 20;" xml:space="preserve">
<style type="text/css">
	.st0{fill:#2C4EAA;}
</style>
<g>
	<path class="st0" d="M1.4,9.3c0-2.2,0.9-4.3,2.3-5.8l0.9,0.8c-1.2,1.3-1.9,3.1-1.9,5c0,1.9,0.7,3.7,1.9,5l-0.9,0.8
		C2.2,13.6,1.4,11.6,1.4,9.3z M15.5,14.3c1.2-1.3,1.9-3.1,1.9-5c0-1.9-0.7-3.7-1.9-5l0.9-0.8c1.4,1.5,2.3,3.6,2.3,5.8
		c0,2.2-0.9,4.3-2.3,5.8L15.5,14.3z M5,9.3C5,8,5.5,6.8,6.4,5.9l0.9,0.8c-0.6,0.7-1,1.6-1,2.6c0,1,0.4,1.9,1,2.6l-0.9,0.8
		C5.5,11.8,5,10.6,5,9.3z M8.7,9.3C8.7,8.6,9.3,8,10,8s1.3,0.6,1.3,1.3c0,0.6-0.4,1.1-0.9,1.3l1.2,5.9H8.5l1.2-5.9
		C9.1,10.4,8.7,9.9,8.7,9.3z M12.8,11.9c0.6-0.7,1-1.6,1-2.6c0-1-0.4-1.9-1-2.6l0.9-0.8C14.5,6.8,15,8,15,9.3c0,1.3-0.5,2.5-1.3,3.4
		L12.8,11.9z"/>
</g>
</svg>
