<?xml version="1.0" encoding="utf-8"?>
<!-- Generator: Adobe Illustrator 24.0.1, SVG Export Plug-In . SVG Version: 6.00 Build 0)  -->
<svg version="1.1" id="레이어_1" xmlns="http://www.w3.org/2000/svg" xmlns:xlink="http://www.w3.org/1999/xlink" x="0px"
	 y="0px" viewBox="0 0 45.2 45.2" style="enable-background:new 0 0 45.2 45.2;" xml:space="preserve">
<style type="text/css">
	.st0{fill:#B3B3B3;}
</style>
<path class="st0" d="M39.9,21.2C39.9,21.2,39.9,21.1,39.9,21.2C39.8,21.1,39.8,21.1,39.9,21.2C39,20.4,38.1,20,37,19.9
	s-2.2-0.1-3.2-0.1c-1.8,0-3.7,0-5.5,0c-0.2,0-0.4-0.1-0.5-0.3c-1.1-1.6-2.2-3.2-3.3-4.9c-1.9-2.7-3.7-5.5-5.6-8.2
	c-0.1-0.1-0.1-0.2-0.2-0.2C18.5,6.1,18.4,6,18.3,6c-0.9,0-1.9,0.1-2.9,0.1c-0.5,0-0.9,0-1.4,0c-0.5,0-0.6,0.2-0.4,0.6l0,0.1
	c0.4,1.1,0.8,2.1,1.2,3.1c1.1,2.9,2.2,5.7,3.3,8.5c0.1,0.4,0.3,0.7,0.4,1.1c-0.1,0-0.3,0-0.3,0c-2.2,0-4.3,0-6.5,0
	c-0.2,0-0.4-0.1-0.6-0.3c-1-1.3-2.1-2.6-3.1-4c-0.1-0.1-0.3-0.2-0.4-0.2c0,0,0,0,0,0c0,0,0,0,0,0c-0.9,0-1.8,0-2.7,0
	c-0.4,0-0.5,0.2-0.3,0.6c0.1,0.2,0.2,0.4,0.3,0.6c1.1,2,2.1,4,3.1,5.9c0.1,0.2,0.1,0.3,0,0.5c-0.1,0.2-0.3,0.5-0.4,0.7
	c-1,1.9-2,3.8-3,5.7c-0.2,0.4-0.1,0.6,0.4,0.6c0.8,0,1.7,0,2.5,0c0.1,0,0.3-0.1,0.4-0.2c0.2-0.2,0.4-0.5,0.6-0.7
	c0.9-1.1,1.8-2.2,2.7-3.3c0.1-0.1,0.2-0.2,0.4-0.2c2.2,0,4.4,0,6.8,0c0,0,0.1,0,0.2,0c0,0.1,0,0.1,0,0.1c-0.5,1.1-0.9,2.2-1.3,3.3
	c-0.5,1.4-1.1,2.8-1.6,4.1c-0.7,1.7-1.4,3.5-2.1,5.2c-0.1,0.2,0,0.3,0,0.4c0.1,0.1,0.2,0.2,0.3,0.2c1.5,0.1,2.9,0.2,4.4,0.2
	c0.1,0,0.3-0.1,0.4-0.2c0.5-0.7,1-1.4,1.5-2.1c0.7-1,1.5-2.1,2.2-3.1c1.4-2.1,2.9-4.1,4.3-6.2c0.4-0.6,0.7-1.1,1.2-1.7
	c0.1-0.1,0.3-0.3,0.4-0.3c2.9,0,5.7,0,8.6,0c1.2,0,2.2-0.4,3.1-1.2C40.9,23.6,40.9,22.1,39.9,21.2z"/>
</svg>
