<?xml version="1.0" encoding="utf-8"?>
<!-- Generator: Adobe Illustrator 24.0.1, SVG Export Plug-In . SVG Version: 6.00 Build 0)  -->
<svg version="1.1" id="레이어_1" xmlns="http://www.w3.org/2000/svg" xmlns:xlink="http://www.w3.org/1999/xlink" x="0px"
	 y="0px" viewBox="0 0 20 20" style="enable-background:new 0 0 20 20;" xml:space="preserve">
<style type="text/css">
	.st0{fill:#FF8298;}
</style>
<g>
	<g>
		<path class="st0" d="M19.4,16L11,2.3c-0.6-0.9-1.5-0.9-2,0L0.5,16c-0.6,0.9-0.1,1.6,0.9,1.6h17C19.5,17.6,19.9,16.9,19.4,16z
			 M9.9,5.3c0.5,0,1,0.6,0.9,1.3L10.7,11c0,0.7-0.4,1.3-0.8,1.3c-0.4,0-0.7-0.6-0.8-1.3L9,6.6C9,5.9,9.4,5.3,9.9,5.3z M9.9,15.6
			c-0.7,0-1.1-0.5-1.1-1.2c0-0.7,0.5-1.2,1.1-1.2c0.7,0,1.1,0.5,1.1,1.2C11.1,15.2,10.6,15.6,9.9,15.6z"/>
	</g>
</g>
</svg>
