<?xml version="1.0" encoding="utf-8"?>
<!-- Generator: Adobe Illustrator 24.0.1, SVG Export Plug-In . SVG Version: 6.00 Build 0)  -->
<svg version="1.1" id="레이어_1" xmlns="http://www.w3.org/2000/svg" xmlns:xlink="http://www.w3.org/1999/xlink" x="0px"
	 y="0px" viewBox="0 0 46 46" style="enable-background:new 0 0 46 46;" xml:space="preserve">
<style type="text/css">
	.st0{fill:#2C4EAA;}
	.st1{fill:#FFFFFF;}
</style>
<g id="그룹_118" transform="translate(-901 -28)">
	<circle id="타원_31" class="st0" cx="924" cy="51" r="23"/>
</g>
<g id="그룹_130" transform="translate(9.789 9.077)">
	<g id="그룹_129" transform="translate(3.8 2.5)">
		<path id="패스_116" class="st1" d="M9.1,13.6c0.2,0.3,0.7,0.4,1,0.1c0,0,0.1-0.1,0.1-0.1l4.3-5.7c0.2-0.3,0.2-0.7-0.1-1
			c-0.1-0.1-0.3-0.1-0.4-0.1h-2.3V0.6c0-0.3-0.2-0.6-0.6-0.6c0,0,0,0,0,0H8.2C7.9,0,7.7,0.2,7.7,0.6c0,0,0,0,0,0v6.2H5.3
			C5,6.8,4.6,7.1,4.6,7.4c0,0.1,0,0.3,0.1,0.4L9.1,13.6z"/>
		<path id="패스_117" class="st1" d="M0.6,19.8h18.2c0.3,0,0.6-0.2,0.6-0.6c0,0,0,0,0,0v-6.6c0-0.3-0.2-0.6-0.6-0.6c0,0,0,0,0,0
			h-2.3c-0.3,0-0.6,0.2-0.6,0.6c0,0,0,0,0,0v3.8H3.4v-3.8c0-0.3-0.2-0.6-0.6-0.6c0,0,0,0,0,0H0.6c-0.3,0-0.6,0.2-0.6,0.6
			c0,0,0,0,0,0v6.6C0,19.6,0.2,19.8,0.6,19.8C0.6,19.8,0.6,19.8,0.6,19.8z"/>
	</g>
</g>
</svg>
