<?xml version="1.0" encoding="utf-8"?>
<!-- Generator: Adobe Illustrator 24.0.1, SVG Export Plug-In . SVG Version: 6.00 Build 0)  -->
<svg version="1.1" id="레이어_1" xmlns="http://www.w3.org/2000/svg" xmlns:xlink="http://www.w3.org/1999/xlink" x="0px"
	 y="0px" viewBox="0 0 20 20" style="enable-background:new 0 0 20 20;" xml:space="preserve">
<style type="text/css">
	.st0{fill:#FBB03B;}
</style>
<g>
	<g>
		<circle class="st0" cx="1.8" cy="5.1" r="1.2"/>
		<circle class="st0" cx="18.2" cy="5.1" r="1.2"/>
		<circle class="st0" cx="10" cy="2.8" r="1.2"/>
		<path class="st0" d="M1.8,7.3v7.9c1.5-1.1,4.9-1.7,8.2-1.7c3.4,0,6.6,0.6,8.1,1.7V7.3c0-0.2-0.3-0.4-0.4-0.2l-3.5,3
			c-0.1,0.1-0.3,0.1-0.4-0.1l-3.2-5.2c-0.1-0.2-0.4-0.2-0.5,0l-3.4,5.3c-0.1,0.1-0.3,0.2-0.4,0.1L2.2,7.1C2,7,1.8,7.1,1.8,7.3z"/>
		<path class="st0" d="M17.8,16.2c-0.5-0.8-3.5-1.7-7.9-1.7c-4.4,0-7.3,1-7.9,1.7c0.8,1.1,4,1.8,7.9,1.8S17,17.3,17.8,16.2z"/>
	</g>
</g>
</svg>
