<?xml version="1.0" encoding="utf-8"?>
<!-- Generator: Adobe Illustrator 24.0.1, SVG Export Plug-In . SVG Version: 6.00 Build 0)  -->
<svg version="1.1" id="레이어_1" xmlns="http://www.w3.org/2000/svg" xmlns:xlink="http://www.w3.org/1999/xlink" x="0px"
	 y="0px" viewBox="0 0 20 20" style="enable-background:new 0 0 20 20;" xml:space="preserve">
<style type="text/css">
	.st0{fill-rule:evenodd;clip-rule:evenodd;fill:#2C4EAA;}
</style>
<g>
	<g transform="translate(-405.000000, -45.000000)">
		<path class="st0" d="M414.8,58.3l-3.6-3.6c-0.2-0.2-0.1-0.5,0.2-0.5h2.1v-5.1c0-0.2,0.1-0.3,0.3-0.3h2.4c0.2,0,0.3,0.1,0.3,0.3
			v5.1h2.1c0.3,0,0.4,0.3,0.2,0.5l-3.6,3.6C415.1,58.4,414.9,58.4,414.8,58.3z M419.8,59.6h-9.6c-0.2,0-0.3,0.1-0.3,0.3v0.6
			c0,0.2,0.1,0.3,0.3,0.3h9.6c0.2,0,0.3-0.1,0.3-0.3v-0.6C420.1,59.7,420,59.6,419.8,59.6z"/>
	</g>
</g>
</svg>
