<?xml version="1.0" encoding="utf-8"?>
<!-- Generator: Adobe Illustrator 24.0.1, SVG Export Plug-In . SVG Version: 6.00 Build 0)  -->
<svg version="1.1" id="레이어_1" xmlns="http://www.w3.org/2000/svg" xmlns:xlink="http://www.w3.org/1999/xlink" x="0px"
	 y="0px" viewBox="0 0 15 15" style="enable-background:new 0 0 15 15;" xml:space="preserve">
<style type="text/css">
	.st0{fill:#B3B3B3;}
</style>
<g>
	<g>
		<g>
			<path class="st0" d="M2.1,3.9v5.8H3c0.2-1,1.1-1.6,2-1.4C5.7,8.4,6.3,9,6.4,9.7h1.3V3.9H2.1z"/>
			<path class="st0" d="M4.7,9c0.6,0,1,0.5,1,1.1c0,0.6-0.5,1.1-1,1.1c-0.6,0-1-0.5-1-1.1C3.7,9.5,4.1,9,4.7,9"/>
		</g>
		<polygon class="st0" points="10.9,3.9 8.2,3.9 8.2,6.2 12.8,6.2 		"/>
		<g>
			<path class="st0" d="M8.2,6.7v3h0.7c0.2-1,1.1-1.6,2-1.4c0.6,0.1,1,0.5,1.2,1c0.1,0.1,0.1,0.2,0.1,0.4H13v-3H8.2z"/>
			<path class="st0" d="M10.6,9c0.6,0,1,0.5,1,1.1c0,0.6-0.5,1.1-1,1.1c-0.6,0-1-0.5-1-1.1C9.5,9.5,10,9,10.6,9"/>
		</g>
	</g>
</g>
</svg>
