<?xml version="1.0" encoding="utf-8"?>
<!-- Generator: Adobe Illustrator 24.0.1, SVG Export Plug-In . SVG Version: 6.00 Build 0)  -->
<svg version="1.1" id="레이어_1" xmlns="http://www.w3.org/2000/svg" xmlns:xlink="http://www.w3.org/1999/xlink" x="0px"
	 y="0px" viewBox="0 0 36.5 35.3" style="enable-background:new 0 0 36.5 35.3;" xml:space="preserve">
<style type="text/css">
	.st0{fill:#B5B5B6;}
</style>
<g id="타원_2">
	<path class="st0" d="M18.2,33.3c-8.6,0-15.7-7-15.7-15.7C2.6,9,9.6,2,18.2,2s15.7,7,15.7,15.7C33.9,26.3,26.9,33.3,18.2,33.3z
		 M18.2,2.9c-8.1,0-14.8,6.6-14.8,14.8s6.6,14.8,14.8,14.8c8.1,0,14.8-6.6,14.8-14.8S26.4,2.9,18.2,2.9z"/>
</g>
<g id="패스_16">
	<polygon class="st0" points="16.9,25.1 10.9,17.6 11.9,16.9 16.7,22.9 24.4,10.4 25.4,11.1 	"/>
</g>
</svg>
