<?xml version="1.0" encoding="utf-8"?>
<!-- Generator: Adobe Illustrator 24.0.1, SVG Export Plug-In . SVG Version: 6.00 Build 0)  -->
<svg version="1.1"
	 id="레이어_1" xmlns:cc="http://creativecommons.org/ns#" xmlns:dc="http://purl.org/dc/elements/1.1/" xmlns:inkscape="http://www.inkscape.org/namespaces/inkscape" xmlns:rdf="http://www.w3.org/1999/02/22-rdf-syntax-ns#" xmlns:sodipodi="http://sodipodi.sourceforge.net/DTD/sodipodi-0.dtd" xmlns:svg="http://www.w3.org/2000/svg"
	 xmlns="http://www.w3.org/2000/svg" xmlns:xlink="http://www.w3.org/1999/xlink" x="0px" y="0px" viewBox="0 0 137.4 57.3"
	 style="enable-background:new 0 0 137.4 57.3;" xml:space="preserve">
<style type="text/css">
	.st0{enable-background:new    ;}
	.st1{fill:#CCCCCC;}
</style>
<g class="st0">
	<g>
		<path class="st1" d="M8.2,49.9v0.9h4.2v3.9H3.8v0.8h9v1.6H1.6v-3.9h8.6v-0.7H1.6v-1.6h4.3v-0.9H0v-1.6h14.1v1.6H8.2z M0.5,46.2
			c3.1-0.1,4.7-0.9,5.1-1.8H1.3v-1.6h4.6v-1.2h2.2v1.2h4.6v1.6H8.4c0.4,0.9,2,1.6,5.1,1.8l-0.6,1.6C10,47.7,8,47,7,45.8
			c-1,1.2-2.9,1.9-5.9,2L0.5,46.2z"/>
	</g>
	<g>
		<path class="st1" d="M29.1,53.5v1.8H14.9v-1.8h5v-5.4h2.2v5.4H29.1z M24.9,51.6c0.6-3,0.6-5.1,0.6-7h-9.1v-1.8h11.4v1.5
			c0,2,0,4.2-0.6,7.5L24.9,51.6z"/>
	</g>
	<g>
		<path class="st1" d="M32.7,51.5c1.2,0,2.6-0.1,4.1-0.4L37,53c-2,0.4-3.8,0.5-5.4,0.5h-1.1V43.3h2.2V51.5z M43.3,41.5v15.7h-2.1
			v-7.8h-1.4v7.1h-2.1V41.8h2.1v5.7h1.4v-6H43.3z"/>
	</g>
	<g>
		<path class="st1" d="M57.9,41.6v9.3h-2.2v-2h-3.4c-0.7,0.8-1.9,1.3-3.1,1.3c-2.3,0-4.1-1.6-4.1-3.9c0-2.2,1.8-3.9,4.1-3.9
			c1.3,0,2.4,0.5,3.1,1.3h3.4v-2.1H57.9z M51.2,46.3c0-1.2-0.9-2-2-2c-1.1,0-2,0.7-2,2c0,1.2,0.8,2,2,2
			C50.3,48.2,51.2,47.5,51.2,46.3z M47.3,51.5h10.7v5.7h-2.2v-3.9h-8.4V51.5z M55.7,47.1v-1.6h-2.5c0.1,0.3,0.1,0.5,0.1,0.8
			c0,0.3,0,0.5-0.1,0.8H55.7z"/>
	</g>
	<g>
		<path class="st1" d="M68.5,48.2c0,3.5-1.8,5.6-4.1,5.6c-2.4,0-4.1-2.2-4.1-5.6c0-3.4,1.8-5.6,4.1-5.6
			C66.7,42.6,68.5,44.8,68.5,48.2z M62.4,48.2c0,2.3,0.8,3.6,2,3.6c1.2,0,2-1.2,2-3.6c0-2.3-0.8-3.6-2-3.6
			C63.2,44.7,62.4,45.9,62.4,48.2z M72.8,41.5v15.7h-2.2V41.5H72.8z"/>
	</g>
	<g>
		<path class="st1" d="M86.3,46.7c-0.4,1.7-2,2.8-4,2.8c-2.3,0-4.1-1.5-4.1-3.7c0-2.1,1.8-3.7,4.1-3.7c2,0,3.6,1.1,4,2.8h2.5v-3.3
			H91v8.3h-2.2v-3.1H86.3z M90,51.8c0,1.6,0.7,3.1,2.7,3.8l-1.1,1.7c-1.3-0.5-2.2-1.4-2.7-2.4c-0.5,1.1-1.4,2-2.6,2.4l-0.9-1.3V57
			h-5.7v-6.3h2.1v1.5h1.6v-1.5h2.1v4.7c1.7-0.8,2.4-2.2,2.4-3.7v-1.2H90V51.8z M82.3,47.7c1.2,0,2-0.7,2-1.9c0-1.2-0.8-1.8-2-1.8
			c-1.1,0-2,0.7-2,1.8C80.3,47,81.1,47.7,82.3,47.7z M83.3,53.9h-1.6v1.5h1.6V53.9z"/>
	</g>
	<g>
		<path class="st1" d="M107,48.4v1.8H92.9v-1.8H107z M105.6,47.7c-2.7-0.3-4.6-1.4-5.6-2.9c-1,1.5-2.9,2.6-5.6,2.9l-0.8-1.7
			c3.5-0.4,5.2-2.1,5.2-3.7v-0.5h2.3v0.5c0,1.6,1.7,3.3,5.2,3.7L105.6,47.7z M103.1,50.9h2.2V57H94.6v-6.1h2.2v1.3h6.3V50.9z
			 M103.1,53.9h-6.3v1.4h6.3V53.9z"/>
	</g>
	<g>
		<path class="st1" d="M110.9,51.4c2.1-0.1,4.3-0.2,6.6-0.7l0.2,1.9c-2.7,0.6-5.3,0.7-7.6,0.7h-1.4V43h2.2V51.4z M120.9,41.5v15.7
			h-2.2V41.5H120.9z"/>
	</g>
	<g>
		<path class="st1" d="M125.7,51.6c2.2,0,4.1-0.2,6.1-0.5L132,53c-2.4,0.4-4.5,0.5-7.2,0.5h-1.3V43h7.3v1.8h-5.1V51.6z M137.4,49.2
			h-2.3v8.1h-2.2V41.6h2.2v5.8h2.3V49.2z"/>
	</g>
</g>
<g id="그룹_352" transform="translate(467.125 467.166)">
	<g id="패스_313">
		<path class="st1" d="M-380.5-444.6c-2,0-3.7,1.6-3.7,3.7s1.6,3.7,3.7,3.7c2,0,3.7-1.6,3.7-3.7l0,0
			C-376.8-442.9-378.5-444.6-380.5-444.6z M-380.5-439.8c-0.6,0-1.1-0.5-1.1-1.1s0.5-1.1,1.1-1.1s1.1,0.5,1.1,1.1
			C-379.4-440.3-379.9-439.8-380.5-439.8L-380.5-439.8z"/>
	</g>
	<g id="패스_314">
		<path class="st1" d="M-380.9-459.8h-6.3c-0.5,0-0.9,0.4-0.9,0.9v16.8c0,0.5,0.4,0.9,0.9,0.9h0.9c0.4,0,0.8-0.3,0.9-0.7
			c0.4-2.7,3-4.6,5.7-4.2c2.1,0.3,3.8,2,4.2,4.2c0.1,0.4,0.4,0.7,0.9,0.7h0.9c0.5,0,0.9-0.4,0.9-0.9v-8.4c0-0.2-0.1-0.4-0.2-0.6
			l-7-8.4C-380.4-459.7-380.6-459.8-380.9-459.8z M-386.3-452.9v-4.3c0-0.5,0.4-0.9,0.9-0.9h3.8c0.3,0,0.5,0.1,0.7,0.3l3.6,4.3
			c0.3,0.4,0.3,0.9-0.1,1.2c-0.2,0.1-0.4,0.2-0.6,0.2h-7.4C-386-452.1-386.3-452.4-386.3-452.9L-386.3-452.9z"/>
	</g>
	<g id="패스_315">
		<path class="st1" d="M-423.8-441.3h2.2c0.4,0,0.8-0.3,0.9-0.7c0.3-2.5,2.4-4.3,4.9-4.2c2.5-0.1,4.6,1.7,4.9,4.2
			c0.1,0.4,0.4,0.7,0.9,0.7h19.3c0.5,0,0.9-0.4,0.9-0.9v-4.8c0-0.5-0.4-0.9-0.9-0.9h-33.1c-0.5,0-0.9,0.4-0.9,0.9c0,0,0,0,0,0v4.8
			C-424.6-441.7-424.2-441.3-423.8-441.3z"/>
	</g>
	<g id="패스_316">
		<path class="st1" d="M-415.8-444.6c-2,0-3.7,1.6-3.7,3.7s1.6,3.7,3.7,3.7s3.7-1.6,3.7-3.7C-412.1-442.9-413.7-444.6-415.8-444.6z
			 M-415.8-439.8c-0.6,0-1.1-0.5-1.1-1.1s0.5-1.1,1.1-1.1s1.1,0.5,1.1,1.1C-414.7-440.3-415.2-439.8-415.8-439.8L-415.8-439.8z"/>
	</g>
</g>
<g id="선_143">
	<path class="st1" d="M58,6.2c-0.6,0-1-0.4-1-1V1c0-0.6,0.4-1,1-1s1,0.4,1,1v4.2C59,5.8,58.5,6.2,58,6.2z"/>
</g>
<g id="선_144">
	<path class="st1" d="M52.2,9.1c-0.3,0-0.6-0.1-0.8-0.4l-3.4-4c-0.4-0.4-0.3-1.1,0.1-1.4s1.1-0.3,1.4,0.1l3.4,4
		c0.4,0.4,0.3,1.1-0.1,1.4C52.6,9,52.4,9.1,52.2,9.1z"/>
</g>
<g id="선_145">
	<path class="st1" d="M63.8,9.1c-0.2,0-0.5-0.1-0.6-0.2c-0.4-0.4-0.5-1-0.1-1.4l3.4-4c0.4-0.4,1-0.5,1.4-0.1c0.4,0.4,0.5,1,0.1,1.4
		l-3.4,4C64.3,9,64,9.1,63.8,9.1z"/>
</g>
<g id="선_146">
	<path class="st1" d="M47.7,13.8c-0.1,0-0.2,0-0.4-0.1l-5.2-1.9c-0.5-0.2-0.8-0.8-0.6-1.3c0.2-0.5,0.8-0.8,1.3-0.6l5.2,1.9
		c0.5,0.2,0.8,0.8,0.6,1.3C48.4,13.6,48.1,13.8,47.7,13.8z"/>
</g>
<g id="선_147">
	<path class="st1" d="M68,13.8c-0.4,0-0.8-0.2-0.9-0.6c-0.2-0.5,0.1-1.1,0.6-1.3l5-1.9c0.5-0.2,1.1,0.1,1.3,0.6
		c0.2,0.5-0.1,1.1-0.6,1.3l-5,1.9C68.3,13.8,68.1,13.8,68,13.8z"/>
</g>
</svg>
