<?xml version="1.0" encoding="utf-8"?>
<!-- Generator: Adobe Illustrator 24.0.1, SVG Export Plug-In . SVG Version: 6.00 Build 0)  -->
<svg version="1.1" id="레이어_1" xmlns="http://www.w3.org/2000/svg" xmlns:xlink="http://www.w3.org/1999/xlink" x="0px"
	 y="0px" viewBox="0 0 841.9 595.3" style="enable-background:new 0 0 841.9 595.3;" xml:space="preserve">
<style type="text/css">
	.st0{fill:#0A2D88;}
</style>
<g transform="matrix(1, 0, 0, 1, 0, 0)">
	<path id="패스_18-2" class="st0" d="M779.2,233.4c0,0-4.7-48.4-65.6-48.4l-297,0l-79.8-0.1c-92.8,0.1-206.9,0.2-228.2,0.2h-0.5
		c-12.4,0-22.5,10.1-22.5,22.5s10.1,22.5,22.5,22.5l36.6-0.1c6.2-0.1,11.2,4.9,11.3,11.1c0.1,6.2-4.9,11.2-11.1,11.3
		c-0.1,0-0.1,0-0.2,0H70.4c-18.7,0.1-33.8,15.4-33.7,34.1c0.1,18.6,15.1,33.6,33.7,33.7h87.2c6.2,0.1,11.1,5.1,11.1,11.3
		c0,4.3-2.4,8.2-6.3,10c-1.5,0.7-3.2,1.1-4.8,1l0,0h-25.2c-18.7-0.1-34,15-34.1,33.7c-0.1,18.7,15,34,33.7,34.1c0.1,0,0.2,0,0.4,0
		h125.2l489,0l58.5,0L779.2,233.4z"/>
</g>
</svg>
