<svg version="1.1" id="레이어_1" xmlns="http://www.w3.org/2000/svg" x="0" y="0" viewBox="0 0 22 20" xml:space="preserve"><style>.st0{fill:#b3b3b3}</style><path class="st0" d="M.44 2.95v11.3h1.74c.37-1.89 2.15-3.12 3.97-2.73 1.32.28 2.36 1.35 2.63 2.73h2.53V2.95H.44z"/><path class="st0" d="M5.48 12.85c1.12 0 2.02.94 2.02 2.1s-.9 2.1-2.02 2.1-2.02-.94-2.02-2.1.9-2.1 2.02-2.1m12.13-9.9h-5.33v4.53h8.97zm-5.33 5.47v5.83h1.34c.37-1.89 2.15-3.12 3.97-2.73 1.08.23 1.96.98 2.4 2 .12.23.22.47.27.73h1.3V8.42h-9.28z"/><path class="st0" d="M16.92 12.85c1.12 0 2.02.94 2.02 2.1s-.9 2.1-2.02 2.1-2.02-.94-2.02-2.1.9-2.1 2.02-2.1"/></svg>