<svg version="1.1" id="레이어_1" xmlns="http://www.w3.org/2000/svg" x="0" y="0" viewBox="0 0 37.49 20" xml:space="preserve"><style>.st0{fill:#fff}</style><path class="st0" d="M15.26 4.87c.01-.02 0-.05 0-.07 0-.63.51-1.15 1.14-1.15.56 0 1.02.39 1.13.92.03.12.05.29.05.29l.92 5.83-2.32.02-.92-5.84zm6.66-.12c0-.63.5-1.15 1.14-1.15.56 0 1.02.39 1.13.92.03.12.05.29.05.29l.92 5.83-2.32.02-.92-5.85h.01c-.01-.01-.01-.03-.01-.06m-1.73-3.48c-4.8.04-12.03.09-13.12.1h-.03c-.64 0-1.16.53-1.16 1.17 0 .64.53 1.16 1.17 1.16h.05l.96-.01v-.01l2.21-.01v.01c.21 0 .42.12.51.32.14.29.02.63-.26.77-.08.04-.16.05-.25.05v.01H8.76l-4.86.03c-.04 0-.08-.01-.12 0-.97.01-1.74.8-1.74 1.76.01.97.79 1.75 1.76 1.74.07 0 .14-.01.2-.02v.01l7.04-.05h.78v.01c.21 0 .42.12.52.32.14.29.02.63-.26.77-.08.05-.16.07-.25.07v.01l-1.43.01-.61.01c-.04 0-.08-.01-.12 0-.97.01-1.74.79-1.74 1.76.01.96.8 1.74 1.76 1.74.03 0 .07 0 .1-.01V13l6.37-.04 18.12-.11-.64-4.19s-.04-.15-.19-.3c-.05-.06-.11-.12-.17-.17-.03-.02-.04-.04-.07-.06-.18-.12-.4-.2-.63-.2l-3.2-.04c-.11 0-.21-.02-.32-.05-.09-.03-.18-.06-.26-.11-.17-.1-.32-.24-.43-.41-.02-.03-.07-.14-.11-.26-.02-.07-.81-4.94-.83-4.98a1.28 1.28 0 00-.21-.4c-.22-.27-.54-.44-.92-.44l-6.11.03z"/><path class="st0" d="M28.51 2.13s.23.32.31.85c.05.38.43 2.72.43 2.72s.06.47.47.73.69.22.81.22l1.63-.01s.55-.02.9.26c-.59-.53-4.55-4.77-4.55-4.77m6.42 14.26l-.19-1.26h.01l-.13-.85-.03-.18-20.71.13c-.07 0-.13 0-.19.01-.03 0-.06-.01-.1-.01-.64 0-1.16.53-1.15 1.17 0 .64.53 1.16 1.17 1.16.06 0 .11-.01.17-.02h.08l.98.01.21-.01h.78c.14 1.24 1.29 2.24 2.71 2.23 1.21-.01 2.14-.75 2.31-1.73.03-.17.02-.53.02-.54l6.85-.04c.12 1.11 1.15 2.03 2.39 2.19.14.02.29.03.43.03 1.42-.01 2.46-1.03 2.34-2.26 0-.01 2.05-.03 2.05-.03"/></svg>