<svg xmlns="http://www.w3.org/2000/svg" viewBox="0 0 20 20"><path d="M14.49 10.59c.03-.19.04-.38.04-.59 0-.2-.01-.4-.04-.59l1.28-.99c.11-.09.14-.26.08-.38l-1.21-2.09c-.08-.14-.23-.18-.37-.14l-1.5.6c-.31-.24-.65-.44-1.02-.59l-.23-1.6a.31.31 0 00-.3-.26H8.79a.31.31 0 00-.3.26l-.23 1.6c-.36.15-.7.36-1.01.59l-1.5-.6c-.14-.05-.3 0-.37.14l-1.2 2.09c-.08.13-.05.3.08.38l1.28.99c-.04.19-.06.4-.06.59 0 .19.01.4.04.59l-1.28.99c-.11.09-.14.26-.08.38l1.21 2.09c.08.14.23.18.37.14l1.5-.6c.31.24.65.44 1.02.59l.23 1.6c.03.15.15.26.3.26h2.41c.15 0 .28-.11.3-.26l.23-1.6c.37-.15.71-.35 1.02-.59l1.5.6c.14.05.3 0 .37-.14l1.21-2.09a.28.28 0 00-.08-.38l-1.26-.99zM10 12.26c-1.24 0-2.26-1.02-2.26-2.26S8.76 7.74 10 7.74s2.26 1.02 2.26 2.26-1.02 2.26-2.26 2.26z" fill="#ccc"/></svg>