<svg xmlns="http://www.w3.org/2000/svg" width="12.254" height="11.603" viewBox="0 0 12.254 11.603">
    <path fill="none" stroke="#b3b3b3" stroke-linecap="round" stroke-linejoin="round" stroke-width="0.7px" d="M39.525 67.206c-.068 0-.3 0-.361.006l-1.3.034a.037.037 0 0 1-.034-.018l-2.6-3.156A.18.18 0 0 0 35.1 64h-.539l1.463 3.226a.047.047 0 0 1-.045.067l-2.438.036a.162.162 0 0 1-.132-.062l-.741-.9a.353.353 0 0 0-.271-.12h-.378c-.026 0-.022.024-.015.049l.4 1.431a.327.327 0 0 1 0 .238L32 69.389c-.012.039-.01.06.035.06h.365a.251.251 0 0 0 .269-.126l.755-.916a.164.164 0 0 1 .132-.062l2.418.054a.054.054 0 0 1 .049.075l-1.459 3.219h.536a.18.18 0 0 0 .133-.071l2.6-3.154c.008-.012.04-.018.054-.018l1.28.034c.066 0 .292.006.361.006.887 0 1.448-.244 1.448-.643s-.562-.641-1.451-.641z" transform="rotate(-24 -124.566 108.163)"/>
</svg>
