<svg id="레이어_1" data-name="레이어 1" xmlns="http://www.w3.org/2000/svg" viewBox="0 0 21.12 14.1"><defs><style>.cls-1{fill:#fff}</style></defs><path class="cls-1" d="M.44 3v11.3h1.74a3.37 3.37 0 014-2.73 3.44 3.44 0 012.63 2.73h2.53V3z" transform="translate(-.44 -2.95)"/><path class="cls-1" d="M5.48 12.85a2.1 2.1 0 010 4.2 2.1 2.1 0 010-4.2" transform="translate(-.44 -2.95)"/><path class="cls-1" d="M17.17 0h-5.33v4.53h8.97L17.17 0z"/><path class="cls-1" d="M12.28 8.42v5.83h1.34a3.33 3.33 0 016.38-.73 2.67 2.67 0 01.27.73h1.3V8.42z" transform="translate(-.44 -2.95)"/><path class="cls-1" d="M16.92 12.85a2.1 2.1 0 11-2 2.1 2.06 2.06 0 012-2.1" transform="translate(-.44 -2.95)"/></svg>