<svg version="1.1" id="레이어_1" xmlns="http://www.w3.org/2000/svg" x="0" y="0" viewBox="0 0 129.99 20" xml:space="preserve"><style>.st0{fill:#fff}</style><path class="st0" d="M40.97 11.84c-.2.04-.43.11-.75.39-.59.41-1.3.62-2.07.62-2.19 0-3.66-1.5-3.66-3.73s1.47-3.73 3.66-3.73c.92 0 1.67.23 2.28.79.47.33.92.34 1.37.1l1.09-.63c-1.03-1.52-2.78-2.42-4.73-2.42-3.36 0-5.9 2.54-5.9 5.9 0 3.36 2.54 5.9 5.9 5.9 1.96 0 3.71-.9 4.73-2.42l-1.14-.66c-.17-.08-.47-.16-.78-.11m8.3 1.02c-2.12 0-3.67-1.57-3.67-3.73s1.54-3.73 3.67-3.73 3.67 1.57 3.67 3.73-1.54 3.73-3.67 3.73m0-9.64c-3.31 0-5.9 2.59-5.9 5.9 0 3.31 2.59 5.9 5.9 5.9s5.9-2.59 5.9-5.9c.01-3.31-2.59-5.9-5.9-5.9m12.68 9.43h-2.89V4.61c0-.49-.25-1.1-1.21-1.15l-1.02-.01v10.42c.02.18.1.48.39.69.19.13.36.22.93.22l5.14.01v-1.12c0-.12-.03-.54-.39-.8-.21-.13-.39-.22-.95-.22m7.66.21c-2.12 0-3.67-1.57-3.67-3.73s1.54-3.73 3.67-3.73c2.12 0 3.66 1.57 3.66 3.73s-1.54 3.73-3.66 3.73m0-9.64c-3.31 0-5.9 2.59-5.9 5.9 0 3.31 2.59 5.9 5.9 5.9 3.31 0 5.9-2.59 5.9-5.9 0-3.31-2.59-5.9-5.9-5.9M81.44 8.2c-1.75-.53-2.28-.92-2.28-1.68 0-.56.46-1.12 1.49-1.12.57 0 1.04.14 1.43.43l.03.03c.4.35.65.39.65.39.57.17 1.08-.2 1.09-.2l.81-.47c-.83-1.53-2.22-2.34-4.01-2.34-1.85 0-3.73 1.15-3.73 3.36 0 2.15 1.67 2.91 3.3 3.36 1.62.45 2.61.77 2.61 1.72 0 .36-.18 1.19-1.83 1.19-.78 0-1.4-.21-1.9-.65-.06-.03-.51-.38-.76-.43-.47-.1-1.08.22-1.08.22l-.77.44c.72 1.67 2.28 2.58 4.43 2.58 2.52 0 4.15-1.33 4.15-3.39 0-2.35-1.93-2.93-3.63-3.44m9.5 0c-1.75-.53-2.28-.92-2.28-1.68 0-.56.46-1.12 1.49-1.12.58 0 1.04.14 1.43.43l.03.03c.4.35.65.39.65.39.57.17 1.08-.2 1.09-.2l.81-.47c-.83-1.53-2.22-2.34-4.01-2.34-1.85 0-3.73 1.15-3.73 3.36 0 2.15 1.67 2.91 3.3 3.36 1.62.45 2.61.77 2.61 1.72 0 .36-.18 1.19-1.83 1.19-.78 0-1.4-.21-1.9-.65-.06-.03-.51-.38-.76-.43-.47-.1-1.08.22-1.08.22l-.77.44c.72 1.67 2.28 2.58 4.43 2.58 2.52 0 4.15-1.33 4.15-3.39-.01-2.35-1.94-2.93-3.63-3.44m11.04 4.44l-3.5.01V10.1h4.21V8h-4.21V5.59l3.45.01c.4-.02.7-.15.9-.38.27-.3.28-.96.28-.96v-.8h-6.87v11.33h6.95v-1.05c.01-.11-.03-1.04-1.21-1.1m9.46-8.12v6.46c0 1.21-.74 1.88-2.08 1.88s-2.08-.66-2.08-1.88V4.77c.01-.41-.1-.73-.32-.95-.35-.36-.89-.36-.9-.36h-1.02v7.75c0 2.28 1.74 3.81 4.32 3.81s4.32-1.53 4.32-3.81V3.46h-1.03c-.06 0-1.09.01-1.21 1.06m13.64-1.06c-.06 0-.56-.04-1.04.66v.01c-.05.07-.11.15-.16.25l-1.73 2.85-.01.02.01-.01-1.03 1.69-2.69-4.4 1.67 2.74-1.75-2.88c-.05-.1-.11-.18-.16-.26v-.01c-.49-.69-.98-.65-1.04-.65h-1.7V14.8h1.06c.2 0 1.17-.05 1.18-1.17V7.35l3.41 5.59h.05l3.41-5.59v6.28c.04.75.43 1.14 1.22 1.17h1.01V3.46h-1.71z"/><path class="st0" d="M40.97 11.84c-.2.04-.43.11-.75.39-.59.41-1.3.62-2.07.62-2.19 0-3.66-1.5-3.66-3.73s1.47-3.73 3.66-3.73c.92 0 1.67.23 2.28.79.47.33.92.34 1.37.1l1.09-.63c-1.03-1.52-2.78-2.42-4.73-2.42-3.36 0-5.9 2.54-5.9 5.9 0 3.36 2.54 5.9 5.9 5.9 1.96 0 3.71-.9 4.73-2.42l-1.14-.66c-.17-.08-.47-.16-.78-.11m8.3 1.02c-2.12 0-3.67-1.57-3.67-3.73s1.54-3.73 3.67-3.73 3.67 1.57 3.67 3.73-1.54 3.73-3.67 3.73m0-9.64c-3.31 0-5.9 2.59-5.9 5.9 0 3.31 2.59 5.9 5.9 5.9s5.9-2.59 5.9-5.9c.01-3.31-2.59-5.9-5.9-5.9m12.68 9.43h-2.89V4.61c0-.49-.25-1.1-1.21-1.15l-1.02-.01v10.42c.02.18.1.48.39.69.19.13.36.22.93.22l5.14.01v-1.12c0-.12-.03-.54-.39-.8-.21-.13-.39-.22-.95-.22m7.66.21c-2.12 0-3.67-1.57-3.67-3.73s1.54-3.73 3.67-3.73c2.12 0 3.66 1.57 3.66 3.73s-1.54 3.73-3.66 3.73m0-9.64c-3.31 0-5.9 2.59-5.9 5.9 0 3.31 2.59 5.9 5.9 5.9 3.31 0 5.9-2.59 5.9-5.9 0-3.31-2.59-5.9-5.9-5.9M81.44 8.2c-1.75-.53-2.28-.92-2.28-1.68 0-.56.46-1.12 1.49-1.12.57 0 1.04.14 1.43.43l.03.03c.4.35.65.39.65.39.57.17 1.08-.2 1.09-.2l.81-.47c-.83-1.53-2.22-2.34-4.01-2.34-1.85 0-3.73 1.15-3.73 3.36 0 2.15 1.67 2.91 3.3 3.36 1.62.45 2.61.77 2.61 1.72 0 .36-.18 1.19-1.83 1.19-.78 0-1.4-.21-1.9-.65-.06-.03-.51-.38-.76-.43-.47-.1-1.08.22-1.08.22l-.77.44c.72 1.67 2.28 2.58 4.43 2.58 2.52 0 4.15-1.33 4.15-3.39 0-2.35-1.93-2.93-3.63-3.44m9.5 0c-1.75-.53-2.28-.92-2.28-1.68 0-.56.46-1.12 1.49-1.12.58 0 1.04.14 1.43.43l.03.03c.4.35.65.39.65.39.57.17 1.08-.2 1.09-.2l.81-.47c-.83-1.53-2.22-2.34-4.01-2.34-1.85 0-3.73 1.15-3.73 3.36 0 2.15 1.67 2.91 3.3 3.36 1.62.45 2.61.77 2.61 1.72 0 .36-.18 1.19-1.83 1.19-.78 0-1.4-.21-1.9-.65-.06-.03-.51-.38-.76-.43-.47-.1-1.08.22-1.08.22l-.77.44c.72 1.67 2.28 2.58 4.43 2.58 2.52 0 4.15-1.33 4.15-3.39-.01-2.35-1.94-2.93-3.63-3.44m11.04 4.44l-3.5.01V10.1h4.21V8h-4.21V5.59l3.45.01c.4-.02.7-.15.9-.38.27-.3.28-.96.28-.96v-.8h-6.87v11.33h6.95v-1.05c.01-.11-.03-1.04-1.21-1.1m9.46-8.12v6.46c0 1.21-.74 1.88-2.08 1.88s-2.08-.66-2.08-1.88V4.77c.01-.41-.1-.73-.32-.95-.35-.36-.89-.36-.9-.36h-1.02v7.75c0 2.28 1.74 3.81 4.32 3.81s4.32-1.53 4.32-3.81V3.46h-1.03c-.06 0-1.09.01-1.21 1.06m13.64-1.06c-.06 0-.56-.04-1.04.66v.01c-.05.07-.11.15-.16.25l-1.73 2.85-.01.02.01-.01-1.03 1.69-2.69-4.4 1.67 2.74-1.75-2.88c-.05-.1-.11-.18-.16-.26v-.01c-.49-.69-.98-.65-1.04-.65h-1.7V14.8h1.06c.2 0 1.17-.05 1.18-1.17V7.35l3.41 5.59h.05l3.41-5.59v6.28c.04.75.43 1.14 1.22 1.17h1.01V3.46h-1.71zM13.48 5.99c.01-.02 0-.04 0-.05 0-.49.4-.89.89-.89.43 0 .79.31.87.72.02.1.04.23.04.23l.69 4.53-1.8.01-.69-4.55zm5.16-.06c0-.49.4-.89.89-.89.43 0 .79.31.87.72.02.1.04.23.04.23l.68 4.53-1.8.01-.68-4.54h.01c0-.02-.01-.04-.01-.06m-1.33-2.71c-3.72 0-9.33.01-10.18.01h-.02c-.5 0-.9.41-.9.9 0 .5.41.9.9.9H9.6v.01c.17 0 .32.09.4.25.11.22.01.49-.2.6-.06.02-.13.03-.19.03v.01H4.58c-.75 0-1.36.61-1.36 1.36 0 .75.61 1.36 1.36 1.36.05 0 .11-.01.16-.01v.01h6.06v.01c.17 0 .33.09.4.25a.438.438 0 01-.4.63v.01H9.12c-.75 0-1.36.61-1.36 1.36 0 .75.61 1.36 1.36 1.36H28.2l-.48-3.26s-.03-.12-.14-.24a.8.8 0 00-.13-.13c-.02-.01-.03-.03-.05-.05a.922.922 0 00-.49-.16l-2.48-.05c-.09 0-.17-.02-.25-.04a.722.722 0 01-.2-.09.921.921 0 01-.33-.32.824.824 0 01-.08-.21c-.02-.05-.61-3.84-.62-3.87-.04-.11-.09-.22-.16-.31a.901.901 0 00-.71-.34l-4.77.02z"/><path class="st0" d="M23.77 3.93s.18.25.23.66c.04.29.32 2.11.32 2.11s.05.37.36.57c.31.2.53.18.62.18h1.27s.42-.01.7.2c-.45-.42-3.5-3.72-3.5-3.72m4.91 11.09l-.14-.98-.1-.66-.02-.14H12.35c-.05 0-.1 0-.15.01-.02 0-.05-.01-.08-.01-.5 0-.9.4-.9.9s.4.9.9.9c.05 0 .09-.01.13-.01h.06l.76.01.16-.01h.61c.1.97.99 1.75 2.09 1.74.94 0 1.66-.57 1.8-1.33.03-.13.02-.41.02-.42 1.4 0 5.32.01 5.32.01.09.86.88 1.58 1.84 1.71.11.02.22.03.33.03 1.1 0 1.91-.78 1.82-1.74l1.62-.01"/></svg>