<?xml version="1.0" encoding="utf-8"?>
<!-- Generator: Adobe Illustrator 24.0.1, SVG Export Plug-In . SVG Version: 6.00 Build 0)  -->
<svg version="1.1" id="레이어_1" xmlns="http://www.w3.org/2000/svg" xmlns:xlink="http://www.w3.org/1999/xlink" x="0px"
	 y="0px" viewBox="0 0 13 13" style="enable-background:new 0 0 13 13;" xml:space="preserve">
<style type="text/css">
	.st0{fill:#888888;}
	.st1{fill:#FFFFFF;}
</style>
<title>09</title>
<g id="그룹_411" transform="translate(-813.897 -608.369)">
	<path id="패스_348" class="st0" d="M820.4,621.4c3.6,0,6.5-2.9,6.5-6.5s-2.9-6.5-6.5-6.5s-6.5,2.9-6.5,6.5c0,0,0,0,0,0
		C813.9,618.5,816.8,621.4,820.4,621.4"/>
	<path id="패스_349" class="st1" d="M819.7,616.3v-0.2c0-0.8,0.4-1.6,1.1-2.1c0.5-0.3,0.8-0.9,0.8-1.5c0-0.6-0.4-1.1-1-1.1
		c0,0-0.1,0-0.1,0c-0.8,0-1.2,0.5-1.3,1.3H818c0-1.3,1.1-2.3,2.4-2.2c0,0,0.1,0,0.1,0c1.2-0.1,2.2,0.7,2.3,1.8c0,0.1,0,0.2,0,0.3
		c0,0.8-0.4,1.6-1.1,2.1c-0.5,0.3-0.8,0.9-0.8,1.5v0.1L819.7,616.3z M819.7,618.8v-1.7h1.2v1.7H819.7z"/>
</g>
</svg>
