<?xml version="1.0" encoding="utf-8"?>
<!-- Generator: Adobe Illustrator 24.0.1, SVG Export Plug-In . SVG Version: 6.00 Build 0)  -->
<svg version="1.1" id="레이어_1" xmlns="http://www.w3.org/2000/svg" xmlns:xlink="http://www.w3.org/1999/xlink" x="0px"
	 y="0px" viewBox="0 0 46 46" style="enable-background:new 0 0 46 46;" xml:space="preserve">
<style type="text/css">
	.st0{fill:#D1D1D1;}
</style>
<g id="그룹_504" transform="translate(-603.941 -577.596)">
	<path id="패스_345" class="st0" d="M630.7,594.7h0.5v-2.1h-9.1v2.1h0.5v5.4h8.2V594.7z M628.2,596.1h-3.1v-0.7h3.1L628.2,596.1z
		 M630.5,594h-7.7v-0.6h7.7V594z"/>
	<path id="패스_346" class="st0" d="M625.2,603h0.5v-2.1h-9.1v2.1h0.5v5.4h8.2V603z M622.6,604.4h-3.1v-0.7h3.1L622.6,604.4z
		 M625,602.3h-7.7v-0.6h7.7V602.3z"/>
	<path id="패스_347" class="st0" d="M636.3,603h0.5v-2.1h-9.1v2.1h0.5v5.4h8.2V603z M633.7,604.4h-3.1v-0.7h3.1L633.7,604.4z
		 M636,602.3h-7.7v-0.6h7.7V602.3z"/>
</g>
</svg>
