<?xml version="1.0" encoding="utf-8"?>
<!-- Generator: Adobe Illustrator 24.0.1, SVG Export Plug-In . SVG Version: 6.00 Build 0)  -->
<svg version="1.1" id="레이어_1" xmlns="http://www.w3.org/2000/svg" xmlns:xlink="http://www.w3.org/1999/xlink" x="0px"
	 y="0px" viewBox="0 0 46 46" style="enable-background:new 0 0 46 46;" xml:space="preserve">
<style type="text/css">
	.st0{fill:#CCCCCC;}
</style>
<path id="패스_271" class="st0" d="M28.5,23.7c0-0.2,0-0.5,0-0.7c0-0.2,0-0.5-0.1-0.7l1.5-1.2c0.1-0.1,0.2-0.3,0.1-0.4l-1.4-2.5
	c-0.1-0.2-0.3-0.2-0.4-0.2l-1.8,0.7c-0.4-0.3-0.8-0.5-1.2-0.7L25,16.3c0-0.2-0.2-0.3-0.4-0.3h-2.8c-0.2,0-0.3,0.1-0.3,0.3l-0.3,1.9
	c-0.4,0.2-0.8,0.4-1.2,0.7l-1.8-0.7c-0.2-0.1-0.4,0-0.4,0.2l-1.4,2.5c-0.1,0.1-0.1,0.3,0.1,0.4l1.5,1.2c0,0.2-0.1,0.5-0.1,0.7
	c0,0.2,0,0.5,0.1,0.7l-1.5,1.2c-0.1,0.1-0.2,0.3-0.1,0.4l1.4,2.4c0.1,0.2,0.3,0.2,0.4,0.2l1.8-0.7c0.4,0.3,0.8,0.5,1.2,0.7l0.3,1.9
	c0,0.2,0.2,0.3,0.4,0.3h2.8c0.2,0,0.3-0.1,0.3-0.3l0.3-1.9c0.4-0.2,0.8-0.4,1.2-0.7l1.8,0.7c0.2,0.1,0.4,0,0.4-0.2l1.4-2.4
	c0.1-0.2,0.1-0.3-0.1-0.4L28.5,23.7z M23.2,25.7c-1.5,0-2.7-1.2-2.7-2.7s1.2-2.7,2.7-2.7s2.7,1.2,2.7,2.7c0,0,0,0,0,0
	C25.9,24.5,24.7,25.7,23.2,25.7L23.2,25.7z"/>
</svg>
